<svg xmlns="http://www.w3.org/2000/svg" version="1.1" xmlns:xlink="http://www.w3.org/1999/xlink" xmlns:svgjs="http://svgjs.dev/svgjs" width="100%" height="100%" viewBox="0 0 1000 600"><rect width="1000" height="600" x="0" y="0" fill="#e2d1f9"/><g><circle r="166.66666666666666" cx="252.74999491373694" cy="274.97221948623655" fill="#317773" transform="matrix(1.452081316553727,0,0,1.4520813165537272,0,-99.2820360505916)"/><path d="M203.2999988238016 349.97222839482623L203.2999988238016 349.97222839482623Q202.83333215713495 349.97222839482623 202.83333215713495 348.53889506149284Q202.83333215713495 347.10556172815956 203.2999988238016 347.10556172815956L203.2999988238016 347.10556172815956Q212.19999882380162 347.10556172815956 216.63333215713496 345.9055617281595Q221.0666654904683 344.7055617281596 222.63333215713496 341.10556172815956Q224.19999882380162 337.50556172815953 224.19999882380162 330.53889506149284L224.19999882380162 330.53889506149284L224.19999882380162 219.40556172815954Q224.19999882380162 212.43889506149287 222.63333215713496 208.9722283948262Q221.0666654904683 205.50556172815953 216.76666549046828 204.1722283948262Q212.43333215713494 202.83889506149288 203.56666549046827 202.83889506149288L203.56666549046827 202.83889506149288Q203.06666549046827 202.83889506149288 203.06666549046827 201.40556172815954Q203.06666549046827 199.9722283948262 203.56666549046827 199.9722283948262L203.56666549046827 199.9722283948262L300.03333215713496 199.9722283948262Q302.1999988238016 199.9722283948262 302.1999988238016 202.13889506149286L302.1999988238016 202.13889506149286L302.6666654904683 231.6388950614929Q302.6666654904683 232.37222839482618 301.3666654904682 232.5055617281595Q300.03333215713496 232.60556172815953 300.03333215713496 231.90556172815954L300.03333215713496 231.90556172815954Q299.2999988238016 218.93889506149287 292.2333321571349 211.9722283948262Q285.1666654904683 205.00556172815953 273.8666654904682 205.00556172815953L273.8666654904682 205.00556172815953L259.2333321571349 205.00556172815953Q247.23333215713492 205.00556172815953 243.3999988238016 207.90556172815954Q239.5666654904683 210.77222839482621 239.5666654904683 219.63889506149286L239.5666654904683 219.63889506149286L239.5666654904683 329.57222839482625Q239.5666654904683 336.7722283948262 241.5999988238016 340.50556172815953Q243.63333215713496 344.2055617281596 249.99999882380163 345.63889506149286Q256.36666549046834 347.10556172815956 268.8333321571349 347.10556172815956L268.8333321571349 347.10556172815956Q269.56666549046827 347.10556172815956 269.56666549046827 348.53889506149284Q269.56666549046827 349.97222839482623 268.8333321571349 349.97222839482623L268.8333321571349 349.97222839482623Q260.89999882380164 349.97222839482623 251.8999988238016 349.7388950614929Q242.8999988238016 349.50556172815953 231.86666549046825 349.50556172815953L231.86666549046825 349.50556172815953Q223.96666549046827 349.50556172815953 216.49999882380163 349.7388950614929Q209.06666549046827 349.97222839482623 203.2999988238016 349.97222839482623ZM287.7999988238016 296.9388950614929L287.7999988238016 296.9388950614929Q287.7999988238016 286.37222839482615 282.1666654904683 281.80556172815955Q276.49999882380166 277.2388950614928 263.2999988238016 277.2388950614928L263.2999988238016 277.2388950614928L232.36666549046825 277.2388950614928L232.36666549046825 272.2055617281595L264.03333215713496 272.2055617281595Q276.7666654904683 272.2055617281595 282.1666654904683 268.1388950614929Q287.56666549046827 264.0388950614929 287.56666549046827 255.40556172815954L287.56666549046827 255.40556172815954Q287.56666549046827 254.93889506149284 288.99999882380166 254.93889506149284Q290.43333215713494 254.93889506149284 290.43333215713494 255.40556172815954L290.43333215713494 255.40556172815954Q290.43333215713494 262.6055617281595 290.2999988238016 266.5722283948262Q290.1999988238016 270.5388950614929 290.1999988238016 274.83889506149285L290.1999988238016 274.83889506149285Q290.1999988238016 280.37222839482615 290.43333215713494 285.6388950614929Q290.6666654904683 290.9388950614929 290.6666654904683 296.9388950614929L290.6666654904683 296.9388950614929Q290.6666654904683 297.40556172815957 289.2333321571349 297.40556172815957Q287.7999988238016 297.40556172815957 287.7999988238016 296.9388950614929Z " fill="#e2d1f9" transform="matrix(1.452081316553727,0,0,1.4520813165537272,0,-99.2820360505916)"/><path d="M503.21666676203387 349.97222839482623L503.21666676203387 349.97222839482623Q502.7500000953672 349.97222839482623 502.7500000953672 348.53889506149284Q502.7500000953672 347.10556172815956 503.21666676203387 347.10556172815956L503.21666676203387 347.10556172815956Q512.1166667620339 347.10556172815956 516.5500000953673 345.9055617281595Q520.9833334287005 344.7055617281596 522.5500000953673 341.10556172815956Q524.1166667620339 337.50556172815953 524.1166667620339 330.53889506149284L524.1166667620339 330.53889506149284L524.1166667620339 219.40556172815954Q524.1166667620339 212.43889506149287 522.5500000953673 208.9722283948262Q520.9833334287005 205.50556172815953 516.6833334287005 204.1722283948262Q512.3500000953672 202.83889506149288 503.4833334287005 202.83889506149288L503.4833334287005 202.83889506149288Q502.9833334287005 202.83889506149288 502.9833334287005 201.40556172815954Q502.9833334287005 199.9722283948262 503.4833334287005 199.9722283948262L503.4833334287005 199.9722283948262L599.9500000953672 199.9722283948262Q602.1166667620339 199.9722283948262 602.1166667620339 202.13889506149286L602.1166667620339 202.13889506149286L602.5833334287006 231.6388950614929Q602.5833334287006 232.37222839482618 601.2833334287006 232.5055617281595Q599.9500000953672 232.60556172815953 599.9500000953672 231.90556172815954L599.9500000953672 231.90556172815954Q599.216666762034 218.93889506149287 592.1500000953672 211.9722283948262Q585.0833334287006 205.00556172815953 573.7833334287006 205.00556172815953L573.7833334287006 205.00556172815953L559.1500000953672 205.00556172815953Q547.1500000953672 205.00556172815953 543.316666762034 207.90556172815954Q539.4833334287005 210.77222839482621 539.4833334287005 219.63889506149286L539.4833334287005 219.63889506149286L539.4833334287005 329.57222839482625Q539.4833334287005 336.7722283948262 541.516666762034 340.50556172815953Q543.5500000953673 344.2055617281596 549.9166667620339 345.63889506149286Q556.2833334287006 347.10556172815956 568.7500000953673 347.10556172815956L568.7500000953673 347.10556172815956Q569.4833334287005 347.10556172815956 569.4833334287005 348.53889506149284Q569.4833334287005 349.97222839482623 568.7500000953673 349.97222839482623L568.7500000953673 349.97222839482623Q560.816666762034 349.97222839482623 551.816666762034 349.7388950614929Q542.816666762034 349.50556172815953 531.7833334287006 349.50556172815953L531.7833334287006 349.50556172815953Q523.8833334287006 349.50556172815953 516.4166667620339 349.7388950614929Q508.9833334287005 349.97222839482623 503.21666676203387 349.97222839482623ZM587.7166667620338 296.9388950614929L587.7166667620338 296.9388950614929Q587.7166667620338 286.37222839482615 582.0833334287006 281.80556172815955Q576.4166667620339 277.2388950614928 563.2166667620338 277.2388950614928L563.2166667620338 277.2388950614928L532.2833334287006 277.2388950614928L532.2833334287006 272.2055617281595L563.9500000953672 272.2055617281595Q576.6833334287005 272.2055617281595 582.0833334287006 268.1388950614929Q587.4833334287005 264.0388950614929 587.4833334287005 255.40556172815954L587.4833334287005 255.40556172815954Q587.4833334287005 254.93889506149284 588.9166667620339 254.93889506149284Q590.3500000953672 254.93889506149284 590.3500000953672 255.40556172815954L590.3500000953672 255.40556172815954Q590.3500000953672 262.6055617281595 590.2166667620338 266.5722283948262Q590.1166667620339 270.5388950614929 590.1166667620339 274.83889506149285L590.1166667620339 274.83889506149285Q590.1166667620339 280.37222839482615 590.3500000953672 285.6388950614929Q590.5833334287006 290.9388950614929 590.5833334287006 296.9388950614929L590.5833334287006 296.9388950614929Q590.5833334287006 297.40556172815957 589.1500000953672 297.40556172815957Q587.7166667620338 297.40556172815957 587.7166667620338 296.9388950614929Z " fill="#317773" transform="matrix(1.452081316553727,0,0,1.4520813165537272,0,-99.2820360505916)"/></g></svg>