<?xml version="1.0" encoding="UTF-8"?>
<svg xmlns="http://www.w3.org/2000/svg" xmlns:xlink="http://www.w3.org/1999/xlink" viewBox="0 0 16 16" width="16px" height="16px">
<g id="surface92904787">
<path style=" stroke:none;fill-rule:nonzero;fill:rgb(9.803922%,9.803922%,9.803922%);fill-opacity:1;" d="M 7.5 1 C 3.917969 1 1 3.917969 1 7.5 C 1 11.082031 3.917969 14 7.5 14 C 11.082031 14 14 11.082031 14 7.5 C 14 3.917969 11.082031 1 7.5 1 Z M 7.5 2 C 10.542969 2 13 4.457031 13 7.5 C 13 10.265625 10.96875 12.542969 8.3125 12.933594 L 8.3125 9.089844 L 9.867188 9.089844 L 10.109375 7.515625 L 8.3125 7.515625 L 8.3125 6.652344 C 8.3125 5.996094 8.527344 5.414062 9.136719 5.414062 L 10.121094 5.414062 L 10.121094 4.039062 C 9.949219 4.015625 9.585938 3.964844 8.890625 3.964844 C 7.449219 3.964844 6.601562 4.726562 6.601562 6.464844 L 6.601562 7.511719 L 5.117188 7.511719 L 5.117188 9.089844 L 6.601562 9.089844 L 6.601562 12.917969 C 3.988281 12.492188 2 10.238281 2 7.5 C 2 4.457031 4.457031 2 7.5 2 Z M 7.5 2 "/>
</g>
</svg>
