<?xml version="1.0" encoding="UTF-8"?>
<svg xmlns="http://www.w3.org/2000/svg" xmlns:xlink="http://www.w3.org/1999/xlink" viewBox="0 0 25 25" width="25px" height="25px">
<g id="surface93017274">
<path style=" stroke:none;fill-rule:nonzero;fill:rgb(100%,100%,100%);fill-opacity:1;" d="M 12.5 1 C 6.15625 1 1 6.15625 1 12.5 C 1 18.84375 6.15625 24 12.5 24 C 18.84375 24 24 18.84375 24 12.5 C 24 6.15625 18.84375 1 12.5 1 Z M 12.5 2 C 18.304688 2 23 6.695312 23 12.5 C 23 18.304688 18.304688 23 12.5 23 C 6.695312 23 2 18.304688 2 12.5 C 2 6.695312 6.695312 2 12.5 2 Z M 15.347656 7.027344 C 13.546875 7.027344 12.074219 8.5 12.074219 10.296875 C 12.074219 10.3125 12.078125 10.324219 12.078125 10.335938 C 10.171875 10.082031 8.484375 9.140625 7.328125 7.71875 C 7.222656 7.59375 7.0625 7.523438 6.902344 7.539062 C 6.738281 7.550781 6.589844 7.640625 6.507812 7.785156 C 6.226562 8.269531 6.066406 8.832031 6.066406 9.429688 C 6.066406 9.960938 6.214844 10.453125 6.4375 10.898438 C 6.207031 10.949219 6.042969 11.152344 6.042969 11.386719 L 6.042969 11.421875 C 6.042969 12.390625 6.496094 13.226562 7.164062 13.824219 C 7.027344 13.957031 6.976562 14.15625 7.035156 14.339844 C 7.316406 15.207031 7.964844 15.886719 8.78125 16.269531 C 8.128906 16.574219 7.429688 16.792969 6.660156 16.792969 C 6.453125 16.792969 6.253906 16.78125 6.058594 16.757812 C 5.828125 16.730469 5.609375 16.867188 5.527344 17.085938 C 5.449219 17.304688 5.535156 17.550781 5.730469 17.675781 C 7.03125 18.511719 8.582031 19 10.246094 19 C 12.929688 19 15.054688 17.871094 16.472656 16.261719 C 17.890625 14.652344 18.625 12.578125 18.625 10.621094 C 18.625 10.5625 18.625 10.503906 18.621094 10.445312 C 19.109375 10.054688 19.566406 9.625 19.914062 9.105469 C 20.03125 8.929688 20.027344 8.699219 19.902344 8.527344 C 19.773438 8.359375 19.554688 8.289062 19.351562 8.347656 C 19.433594 8.191406 19.546875 8.054688 19.601562 7.882812 C 19.664062 7.6875 19.601562 7.472656 19.4375 7.339844 C 19.277344 7.210938 19.050781 7.195312 18.871094 7.300781 C 18.433594 7.5625 17.945312 7.730469 17.433594 7.851562 C 16.863281 7.363281 16.152344 7.027344 15.347656 7.027344 Z M 15.347656 8.027344 C 16.003906 8.027344 16.589844 8.304688 17.003906 8.746094 C 17.121094 8.871094 17.292969 8.925781 17.464844 8.894531 C 17.539062 8.878906 17.601562 8.832031 17.675781 8.8125 C 17.667969 8.820312 17.660156 8.828125 17.652344 8.835938 C 17.457031 8.953125 17.367188 9.183594 17.429688 9.402344 C 17.488281 9.617188 17.691406 9.765625 17.914062 9.761719 C 17.882812 9.789062 17.859375 9.832031 17.824219 9.855469 C 17.691406 9.953125 17.613281 10.113281 17.617188 10.28125 C 17.625 10.394531 17.625 10.507812 17.625 10.621094 C 17.625 12.324219 16.96875 14.1875 15.722656 15.601562 C 14.472656 17.015625 12.652344 18 10.246094 18 C 9.417969 18 8.640625 17.835938 7.898438 17.582031 C 8.820312 17.390625 9.695312 17.0625 10.40625 16.5 C 10.574219 16.371094 10.640625 16.152344 10.574219 15.949219 C 10.503906 15.75 10.320312 15.613281 10.109375 15.609375 C 9.402344 15.597656 8.855469 15.195312 8.449219 14.679688 C 8.597656 14.660156 8.753906 14.660156 8.894531 14.621094 C 9.121094 14.558594 9.273438 14.351562 9.265625 14.121094 C 9.257812 13.886719 9.089844 13.691406 8.863281 13.648438 C 8.035156 13.480469 7.390625 12.863281 7.15625 12.058594 C 7.367188 12.113281 7.554688 12.226562 7.78125 12.234375 C 8.003906 12.238281 8.203125 12.097656 8.273438 11.886719 C 8.339844 11.675781 8.261719 11.441406 8.074219 11.316406 C 7.464844 10.910156 7.066406 10.21875 7.066406 9.429688 C 7.066406 9.265625 7.152344 9.136719 7.1875 8.980469 C 8.605469 10.386719 10.496094 11.320312 12.625 11.429688 C 12.78125 11.4375 12.933594 11.371094 13.035156 11.25 C 13.132812 11.128906 13.171875 10.96875 13.136719 10.816406 C 13.097656 10.648438 13.078125 10.476562 13.078125 10.300781 C 13.078125 9.039062 14.085938 8.03125 15.347656 8.03125 Z M 15.347656 8.027344 "/>
</g>
</svg>
