<?xml version="1.0" encoding="UTF-8"?>
<svg xmlns="http://www.w3.org/2000/svg" xmlns:xlink="http://www.w3.org/1999/xlink" viewBox="0 0 32 32" width="32px" height="32px">
<g id="surface93005828">
<path style=" stroke:none;fill-rule:nonzero;fill:rgb(100%,100%,100%);fill-opacity:1;" d="M 15 2 C 7.832031 2 2 7.832031 2 15 C 2 22.167969 7.832031 28 15 28 C 22.167969 28 28 22.167969 28 15 C 28 7.832031 22.167969 2 15 2 Z M 15 4 C 21.085938 4 26 8.914062 26 15 C 26 20.53125 21.933594 25.082031 16.625 25.867188 L 16.625 18.179688 L 19.730469 18.179688 L 20.21875 15.027344 L 16.625 15.027344 L 16.625 13.300781 C 16.625 11.992188 17.050781 10.828125 18.277344 10.828125 L 20.246094 10.828125 L 20.246094 8.074219 C 19.898438 8.027344 19.167969 7.925781 17.785156 7.925781 C 14.898438 7.925781 13.203125 9.453125 13.203125 12.925781 L 13.203125 15.023438 L 10.234375 15.023438 L 10.234375 18.179688 L 13.207031 18.179688 L 13.207031 25.839844 C 7.980469 24.984375 4 20.472656 4 15 C 4 8.914062 8.914062 4 15 4 Z M 15 4 "/>
</g>
</svg>
